<svg width="18" height="18" viewBox="0 0 18 18" fill="none" xmlns="http://www.w3.org/2000/svg">
<path fill-rule="evenodd" clip-rule="evenodd" d="M2.00012 0H16.0001C17.1001 0 18.0001 0.9 18.0001 2V16C18.0001 17.1 17.1001 18 16.0001 18H2.00012C0.900122 18 0.00012207 17.1 0.00012207 16V2C0.00012207 0.9 0.900122 0 2.00012 0ZM6.30012 13.29C6.69012 13.68 7.32012 13.68 7.71012 13.29L15.2901 5.7C15.6801 5.31 15.6801 4.68 15.2901 4.29C14.9001 3.9 14.2701 3.9 13.8801 4.29L7.00012 11.17L4.12012 8.29C3.73012 7.9 3.10012 7.9 2.71012 8.29C2.52287 8.47683 2.41764 8.73048 2.41764 8.995C2.41764 9.25952 2.52287 9.51317 2.71012 9.7L6.30012 13.29Z" fill="#007A7C"/>
</svg>
