<svg width="36" height="36" viewBox="0 0 36 36" fill="none" xmlns="http://www.w3.org/2000/svg">
<path d="M18 30.96C13.5 30.96 9.522 28.656 7.2 25.2C7.254 21.6 14.4 19.62 18 19.62C21.6 19.62 28.746 21.6 28.8 25.2C26.478 28.656 22.5 30.96 18 30.96ZM18 5.4C19.4322 5.4 20.8057 5.96893 21.8184 6.98162C22.8311 7.99432 23.4 9.36783 23.4 10.8C23.4 12.2322 22.8311 13.6057 21.8184 14.6184C20.8057 15.6311 19.4322 16.2 18 16.2C16.5678 16.2 15.1943 15.6311 14.1816 14.6184C13.1689 13.6057 12.6 12.2322 12.6 10.8C12.6 9.36783 13.1689 7.99432 14.1816 6.98162C15.1943 5.96893 16.5678 5.4 18 5.4ZM18 0C15.6362 0 13.2956 0.465584 11.1117 1.37017C8.92784 2.27475 6.94353 3.60062 5.27208 5.27208C1.89642 8.64773 0 13.2261 0 18C0 22.7739 1.89642 27.3523 5.27208 30.7279C6.94353 32.3994 8.92784 33.7252 11.1117 34.6298C13.2956 35.5344 15.6362 36 18 36C22.7739 36 27.3523 34.1036 30.7279 30.7279C34.1036 27.3523 36 22.7739 36 18C36 8.046 27.9 0 18 0Z" fill="#6B3768" fill-opacity="0.38"/>
</svg>
