<svg width="233" height="112" viewBox="0 0 233 112" fill="none" xmlns="http://www.w3.org/2000/svg">
<rect width="232.834" height="112" fill="#6B3760" fill-opacity="0.21"/>
<path d="M116.953 5.0907C99.5441 5.0907 85.3009 20.058 85.3009 38.4994C85.3009 56.9408 99.5441 71.9081 116.953 71.9081C134.363 71.9081 148.606 56.9408 148.606 38.4994C148.606 20.058 134.362 5.0907 116.953 5.0907ZM83.8759 71.9081C75.7332 72.2246 68.0483 75.1788 62.4187 80.1565C56.7891 85.1342 53.648 91.7525 53.6484 98.6354V112H180.258V98.6354C180.286 91.7456 177.154 85.1143 171.519 80.1316C165.884 75.1489 158.183 72.2018 150.031 71.9081C141.485 80.0597 129.777 85.2718 116.954 85.2718C104.132 85.2718 92.4225 80.0597 83.8759 71.9081Z" fill="#007A7C" fill-opacity="0.39"/>
</svg>
